<?xml version="1.0" standalone="no"?>
<svg xmlns="http://www.w3.org/2000/svg" viewBox="0 0 126.144 36" width="126.144" height="36"><g fill="#000000" color="#000000" transform="translate(0 4) scale(0.5384616)"><svg width="52.0" height="52.0" x="0.0" y="0.0" viewBox="0 0 52 52"><path fill="currentColor" fill-rule="evenodd" d="M48.231 30.94l-.26 1.04c0 .173-.087.173-.087.173v-.173c.867-7.973-10.4-12.566-22.966-12.566-2.514 0-5.2.173-7.714.606-3.986.607-7.02 1.56-9.186 2.6.26 2.774 2.773 3.12 4.333 3.12h.52c2.253-.086 5.027-.52 6.413-.693.174 0 .434-.087.52-.087 1.56-.173 3.207-.346 4.767-.346 7.02 0 14.04 1.905 17.767 6.153 3.639 4.16 2.426 9.013-2.514 13.26-4.506 3.813-10.314 4.592-13.347 4.767h-.693c-3.293 0-6.153-.954-6.673-1.214-4.853-1.906-4.16-5.113-1.473-6.846 2.166-1.387 4.853-1.994 7.366-1.994 4.506 0 8.494 1.907 8.06 4.42-.26 1.734-2.34 2.687-3.987 2.687-.433 0-.867-.087-1.213-.261l-.087-.086c-.086-.173-.173-.26-.606-.433a5.446 5.446 0 0 0-1.647-.26c-1.56 0-3.206.607-3.64 1.473-.26.606.26 1.04.954 1.3.78.26 1.646.347 2.426.347.954 0 1.734-.087 2.167-.174 5.027-.867 9.446-3.206 11.267-5.286 1.473-1.733 1.126-4.16-2.947-6.067-3.467-1.733-7.887-2.08-11.18-2.08-2.167 0-3.813.174-4.42.26-.433.087-3.207.434-6.24.434h-.693c-1.04 0-1.994-.087-3.034-.261-2.773-.346-5.98-2.686-6.933-6.067a12.367 12.367 0 0 1-.173-.952v-.52c-.087-2.774-.26-6.674 1.646-9.36 3.814-5.287 11.614-7.627 19.587-7.627 11.093 0 22.62 4.68 24.18 12.827.086 0 .693 3.726-.26 7.886M23.791 3.207a22.726 22.726 0 0 1 20.02 8.493c-5.113-3.033-11.613-4.853-18.633-4.68-6.327.087-12.134 1.734-16.987 4.42 3.813-4.506 9.273-7.626 15.6-8.233m28.08 20.28c-.52-5.027-2.427-9.793-5.633-13.78A25.978 25.978 0 0 0 25.958 0c-.867 0-1.647 0-2.514.087-6.846.693-13.086 3.987-17.506 9.36C1.518 14.82-.562 21.58.13 28.427 1.344 41.947 12.698 52 25.958 52c.866 0 1.646 0 2.513-.086 6.933-.695 13.173-3.987 17.593-9.361a26.535 26.535 0 0 0 5.807-19.066"></path></svg></g><path fill="#000000" fill-rule="nonzero" d="M12.38 13.13L12.38 13.13Q12.38 15.50 11.10 16.78Q9.82 18.05 7.51 18.05L7.51 18.05L5.21 18.05Q2.38 18.05 1.19 17.06Q0 16.08 0 13.66L0 13.66L0 0.96L7.22 0.96Q9.67 0.96 10.91 2.18Q12.14 3.41 12.14 5.64L12.14 5.64Q12.14 6.94 11.48 7.85Q10.82 8.76 10.03 9.14L10.03 9.14Q12.38 10.25 12.38 13.13ZM3.34 7.63L6.96 7.63Q8.81 7.63 8.81 5.78Q8.81 3.94 6.96 3.94L6.96 3.94L3.34 3.94L3.34 7.63ZM9.05 12.96L9.05 12.96Q9.05 11.81 8.64 11.22Q8.23 10.63 7.18 10.63L7.18 10.63L3.34 10.63L3.34 13.32Q3.34 14.30 3.83 14.69Q4.32 15.07 5.45 15.07L5.45 15.07L7.18 15.07Q9.05 15.07 9.05 12.96ZM22.97 11.86L22.97 11.86L22.97 10.61Q22.97 8.83 22.45 7.90Q21.94 6.96 20.30 6.96L20.30 6.96Q17.66 6.96 17.66 10.51L17.66 10.51L17.66 11.76Q17.66 15.58 20.30 15.58L20.30 15.58Q22.01 15.58 22.54 14.30L22.54 14.30Q22.97 13.30 22.97 11.86ZM26.09 11.14L26.09 11.14Q26.09 15.58 24.41 17.09L24.41 17.09Q22.99 18.38 20.30 18.38L20.30 18.38Q16.87 18.38 15.67 16.37L15.67 16.37Q14.54 14.52 14.54 11.14L14.54 11.14Q14.54 7.97 15.67 6.17L15.67 6.17Q16.92 4.15 20.22 4.15Q23.52 4.15 24.80 5.92Q26.09 7.68 26.09 11.14ZM36 11.86L36 11.86L36 10.61Q36 8.83 35.48 7.90Q34.97 6.96 33.34 6.96L33.34 6.96Q30.70 6.96 30.70 10.51L30.70 10.51L30.70 11.76Q30.70 15.58 33.34 15.58L33.34 15.58Q35.04 15.58 35.57 14.30L35.57 14.30Q36 13.30 36 11.86ZM39.12 11.14L39.12 11.14Q39.12 15.58 37.44 17.09L37.44 17.09Q36.02 18.38 33.34 18.38L33.34 18.38Q29.90 18.38 28.70 16.37L28.70 16.37Q27.58 14.52 27.58 11.14L27.58 11.14Q27.58 7.97 28.70 6.17L28.70 6.17Q29.95 4.15 33.25 4.15Q36.55 4.15 37.84 5.92Q39.12 7.68 39.12 11.14ZM44.62 0L44.62 18.05L41.50 18.07L41.50 0L44.62 0ZM60.60 13.13L60.60 13.13Q60.60 15.50 59.32 16.78Q58.03 18.05 55.73 18.05L55.73 18.05L53.42 18.05Q50.59 18.05 49.40 17.06Q48.22 16.08 48.22 13.66L48.22 13.66L48.22 0.96L55.44 0.96Q57.89 0.96 59.12 2.18Q60.36 3.41 60.36 5.64L60.36 5.64Q60.36 6.94 59.70 7.85Q59.04 8.76 58.25 9.14L58.25 9.14Q60.60 10.25 60.60 13.13ZM51.55 7.63L55.18 7.63Q57.02 7.63 57.02 5.78Q57.02 3.94 55.18 3.94L55.18 3.94L51.55 3.94L51.55 7.63ZM57.26 12.96L57.26 12.96Q57.26 11.81 56.86 11.22Q56.45 10.63 55.39 10.63L55.39 10.63L51.55 10.63L51.55 13.32Q51.55 14.30 52.04 14.69Q52.54 15.07 53.66 15.07L53.66 15.07L55.39 15.07Q57.26 15.07 57.26 12.96ZM74.40 8.86L74.40 18.05L71.28 18.05L71.28 9.29Q71.28 8.11 70.80 7.68Q70.32 7.25 69.46 7.25L69.46 7.25L66.65 8.42L66.65 18.05L63.53 18.05L63.53 4.34L65.86 4.34L66.58 5.98L70.42 4.20Q72.02 4.20 73.21 5.39Q74.40 6.58 74.40 8.86L74.40 8.86ZM90.14 13.13L90.14 13.13Q90.14 15.50 88.86 16.78Q87.58 18.05 85.27 18.05L85.27 18.05L82.97 18.05Q80.14 18.05 78.95 17.06Q77.76 16.08 77.76 13.66L77.76 13.66L77.76 0.96L84.98 0.96Q87.43 0.96 88.67 2.18Q89.90 3.41 89.90 5.64L89.90 5.64Q89.90 6.94 89.24 7.85Q88.58 8.76 87.79 9.14L87.79 9.14Q90.14 10.25 90.14 13.13ZM81.10 7.63L84.72 7.63Q86.57 7.63 86.57 5.78Q86.57 3.94 84.72 3.94L84.72 3.94L81.10 3.94L81.10 7.63ZM86.81 12.96L86.81 12.96Q86.81 11.81 86.40 11.22Q85.99 10.63 84.94 10.63L84.94 10.63L81.10 10.63L81.10 13.32Q81.10 14.30 81.59 14.69Q82.08 15.07 83.21 15.07L83.21 15.07L84.94 15.07Q86.81 15.07 86.81 12.96Z" transform="translate(36, 8.976)"></path></svg>